<?xml version="1.0" encoding="UTF-8" standalone="no"?>
<!DOCTYPE svg PUBLIC "-//W3C//DTD SVG 1.1//EN"
 "http://www.w3.org/Graphics/SVG/1.1/DTD/svg11.dtd">
<!-- Generated by graphviz version 10.0.1 (20240210.2158)
 -->
<!-- Pages: 1 -->
<svg width="1346pt" height="238pt"
 viewBox="0.00 0.00 1345.70 238.00" xmlns="http://www.w3.org/2000/svg" xmlns:xlink="http://www.w3.org/1999/xlink">
<g id="graph0" class="graph" transform="scale(1 1) rotate(0) translate(4 234)">
<polygon fill="white" stroke="none" points="-4,4 -4,-234 1341.7,-234 1341.7,4 -4,4"/>
<!-- 1951978242112 -->
<g id="node1" class="node">
<title>1951978242112</title>
<polygon fill="none" stroke="black" points="0,-193.5 0,-229.5 162.5,-229.5 162.5,-193.5 0,-193.5"/>
<text text-anchor="middle" x="40.25" y="-206.2" font-family="Times New Roman,serif" font-size="14.00">data 0.2355</text>
<polyline fill="none" stroke="black" points="80.5,-193.75 80.5,-229.5"/>
<text text-anchor="middle" x="121.5" y="-206.2" font-family="Times New Roman,serif" font-size="14.00">grad 1.0000</text>
</g>
<!-- 1951977805136* -->
<g id="node7" class="node">
<title>1951977805136*</title>
<ellipse fill="none" stroke="black" cx="225.5" cy="-183.5" rx="27" ry="18"/>
<text text-anchor="middle" x="225.5" y="-178.07" font-family="Times New Roman,serif" font-size="14.00">*</text>
</g>
<!-- 1951978242112&#45;&gt;1951977805136* -->
<g id="edge6" class="edge">
<title>1951978242112&#45;&gt;1951977805136*</title>
<path fill="none" stroke="black" d="M162.93,-195.62C171.68,-193.9 180.23,-192.21 188.04,-190.68"/>
<polygon fill="black" stroke="black" points="188.63,-194.13 197.77,-188.76 187.28,-187.26 188.63,-194.13"/>
</g>
<!-- 1951978195552 -->
<g id="node2" class="node">
<title>1951978195552</title>
<polygon fill="none" stroke="black" points="290.75,-110.5 290.75,-146.5 453.25,-146.5 453.25,-110.5 290.75,-110.5"/>
<text text-anchor="middle" x="331" y="-123.2" font-family="Times New Roman,serif" font-size="14.00">data 0.0000</text>
<polyline fill="none" stroke="black" points="371.25,-110.75 371.25,-146.5"/>
<text text-anchor="middle" x="412.25" y="-123.2" font-family="Times New Roman,serif" font-size="14.00">grad 1.0000</text>
</g>
<!-- 1951978240800+ -->
<g id="node4" class="node">
<title>1951978240800+</title>
<ellipse fill="none" stroke="black" cx="518.5" cy="-128.5" rx="27" ry="18"/>
<text text-anchor="middle" x="518.5" y="-123.08" font-family="Times New Roman,serif" font-size="14.00">+</text>
</g>
<!-- 1951978195552&#45;&gt;1951978240800+ -->
<g id="edge11" class="edge">
<title>1951978195552&#45;&gt;1951978240800+</title>
<path fill="none" stroke="black" d="M453.7,-128.5C462.82,-128.5 471.76,-128.5 479.92,-128.5"/>
<polygon fill="black" stroke="black" points="479.75,-132 489.75,-128.5 479.75,-125 479.75,-132"/>
</g>
<!-- 1951978240800 -->
<g id="node3" class="node">
<title>1951978240800</title>
<polygon fill="none" stroke="black" points="583.75,-110.5 583.75,-146.5 746.25,-146.5 746.25,-110.5 583.75,-110.5"/>
<text text-anchor="middle" x="624" y="-123.2" font-family="Times New Roman,serif" font-size="14.00">data 0.2355</text>
<polyline fill="none" stroke="black" points="664.25,-110.75 664.25,-146.5"/>
<text text-anchor="middle" x="705.25" y="-123.2" font-family="Times New Roman,serif" font-size="14.00">grad 1.0000</text>
</g>
<!-- 1951978240416+ -->
<g id="node12" class="node">
<title>1951978240416+</title>
<ellipse fill="none" stroke="black" cx="811.5" cy="-100.5" rx="27" ry="18"/>
<text text-anchor="middle" x="811.5" y="-95.08" font-family="Times New Roman,serif" font-size="14.00">+</text>
</g>
<!-- 1951978240800&#45;&gt;1951978240416+ -->
<g id="edge9" class="edge">
<title>1951978240800&#45;&gt;1951978240416+</title>
<path fill="none" stroke="black" d="M746.7,-112.86C756.19,-111.02 765.48,-109.22 773.91,-107.59"/>
<polygon fill="black" stroke="black" points="774.55,-111.03 783.7,-105.69 773.22,-104.16 774.55,-111.03"/>
</g>
<!-- 1951978240800+&#45;&gt;1951978240800 -->
<g id="edge1" class="edge">
<title>1951978240800+&#45;&gt;1951978240800</title>
<path fill="none" stroke="black" d="M545.67,-128.5C553.44,-128.5 562.44,-128.5 571.93,-128.5"/>
<polygon fill="black" stroke="black" points="571.74,-132 581.74,-128.5 571.74,-125 571.74,-132"/>
</g>
<!-- 1951978193872 -->
<g id="node5" class="node">
<title>1951978193872</title>
<polygon fill="none" stroke="black" points="288.5,-55.5 288.5,-91.5 455.5,-91.5 455.5,-55.5 288.5,-55.5"/>
<text text-anchor="middle" x="328.75" y="-68.2" font-family="Times New Roman,serif" font-size="14.00">data 0.0665</text>
<polyline fill="none" stroke="black" points="369,-55.75 369,-91.5"/>
<text text-anchor="middle" x="412.25" y="-68.2" font-family="Times New Roman,serif" font-size="14.00">grad &#45;2.0000</text>
</g>
<!-- 1951977806672* -->
<g id="node9" class="node">
<title>1951977806672*</title>
<ellipse fill="none" stroke="black" cx="518.5" cy="-73.5" rx="27" ry="18"/>
<text text-anchor="middle" x="518.5" y="-68.08" font-family="Times New Roman,serif" font-size="14.00">*</text>
</g>
<!-- 1951978193872&#45;&gt;1951977806672* -->
<g id="edge12" class="edge">
<title>1951978193872&#45;&gt;1951977806672*</title>
<path fill="none" stroke="black" d="M455.8,-73.5C464.06,-73.5 472.13,-73.5 479.57,-73.5"/>
<polygon fill="black" stroke="black" points="479.53,-77 489.53,-73.5 479.53,-70 479.53,-77"/>
</g>
<!-- 1951977805136 -->
<g id="node6" class="node">
<title>1951977805136</title>
<polygon fill="none" stroke="black" points="290.75,-165.5 290.75,-201.5 453.25,-201.5 453.25,-165.5 290.75,-165.5"/>
<text text-anchor="middle" x="331" y="-178.2" font-family="Times New Roman,serif" font-size="14.00">data 0.2355</text>
<polyline fill="none" stroke="black" points="371.25,-165.75 371.25,-201.5"/>
<text text-anchor="middle" x="412.25" y="-178.2" font-family="Times New Roman,serif" font-size="14.00">grad 1.0000</text>
</g>
<!-- 1951977805136&#45;&gt;1951978240800+ -->
<g id="edge10" class="edge">
<title>1951977805136&#45;&gt;1951978240800+</title>
<path fill="none" stroke="black" d="M431.87,-165.1C439.86,-162.35 447.91,-159.44 455.5,-156.5 465.42,-152.65 476.04,-148.04 485.63,-143.69"/>
<polygon fill="black" stroke="black" points="486.95,-146.93 494.56,-139.56 484.02,-140.58 486.95,-146.93"/>
</g>
<!-- 1951977805136*&#45;&gt;1951977805136 -->
<g id="edge2" class="edge">
<title>1951977805136*&#45;&gt;1951977805136</title>
<path fill="none" stroke="black" d="M252.67,-183.5C260.44,-183.5 269.44,-183.5 278.93,-183.5"/>
<polygon fill="black" stroke="black" points="278.74,-187 288.74,-183.5 278.74,-180 278.74,-187"/>
</g>
<!-- 1951977806672 -->
<g id="node8" class="node">
<title>1951977806672</title>
<polygon fill="none" stroke="black" points="581.5,-55.5 581.5,-91.5 748.5,-91.5 748.5,-55.5 581.5,-55.5"/>
<text text-anchor="middle" x="624" y="-68.2" font-family="Times New Roman,serif" font-size="14.00">data &#45;0.1331</text>
<polyline fill="none" stroke="black" points="666.5,-55.75 666.5,-91.5"/>
<text text-anchor="middle" x="707.5" y="-68.2" font-family="Times New Roman,serif" font-size="14.00">grad 1.0000</text>
</g>
<!-- 1951977806672&#45;&gt;1951978240416+ -->
<g id="edge13" class="edge">
<title>1951977806672&#45;&gt;1951978240416+</title>
<path fill="none" stroke="black" d="M748.8,-88.97C757.51,-90.6 766.01,-92.19 773.78,-93.64"/>
<polygon fill="black" stroke="black" points="772.99,-97.05 783.46,-95.45 774.27,-90.17 772.99,-97.05"/>
</g>
<!-- 1951977806672*&#45;&gt;1951977806672 -->
<g id="edge3" class="edge">
<title>1951977806672*&#45;&gt;1951977806672</title>
<path fill="none" stroke="black" d="M545.67,-73.5C552.87,-73.5 561.13,-73.5 569.85,-73.5"/>
<polygon fill="black" stroke="black" points="569.6,-77 579.6,-73.5 569.6,-70 569.6,-77"/>
</g>
<!-- 1951978193776 -->
<g id="node10" class="node">
<title>1951978193776</title>
<polygon fill="none" stroke="black" points="288.5,-0.5 288.5,-36.5 455.5,-36.5 455.5,-0.5 288.5,-0.5"/>
<text text-anchor="middle" x="331" y="-13.2" font-family="Times New Roman,serif" font-size="14.00">data &#45;2.0000</text>
<polyline fill="none" stroke="black" points="373.5,-0.75 373.5,-36.5"/>
<text text-anchor="middle" x="414.5" y="-13.2" font-family="Times New Roman,serif" font-size="14.00">grad 0.0665</text>
</g>
<!-- 1951978193776&#45;&gt;1951977806672* -->
<g id="edge7" class="edge">
<title>1951978193776&#45;&gt;1951977806672*</title>
<path fill="none" stroke="black" d="M429.14,-36.85C438.01,-39.95 447.04,-43.23 455.5,-46.5 465.29,-50.28 475.8,-54.72 485.33,-58.88"/>
<polygon fill="black" stroke="black" points="483.65,-61.97 494.21,-62.81 486.48,-55.56 483.65,-61.97"/>
</g>
<!-- 1951978240416 -->
<g id="node11" class="node">
<title>1951978240416</title>
<polygon fill="none" stroke="black" points="874.5,-82.5 874.5,-118.5 1037,-118.5 1037,-82.5 874.5,-82.5"/>
<text text-anchor="middle" x="914.75" y="-95.2" font-family="Times New Roman,serif" font-size="14.00">data 0.1024</text>
<polyline fill="none" stroke="black" points="955,-82.75 955,-118.5"/>
<text text-anchor="middle" x="996" y="-95.2" font-family="Times New Roman,serif" font-size="14.00">grad 1.0000</text>
</g>
<!-- 1951978241472ReLU -->
<g id="node14" class="node">
<title>1951978241472ReLU</title>
<ellipse fill="none" stroke="black" cx="1106.1" cy="-100.5" rx="33.1" ry="18"/>
<text text-anchor="middle" x="1106.1" y="-95.08" font-family="Times New Roman,serif" font-size="14.00">ReLU</text>
</g>
<!-- 1951978240416&#45;&gt;1951978241472ReLU -->
<g id="edge8" class="edge">
<title>1951978240416&#45;&gt;1951978241472ReLU</title>
<path fill="none" stroke="black" d="M1037.44,-100.5C1045.64,-100.5 1053.74,-100.5 1061.33,-100.5"/>
<polygon fill="black" stroke="black" points="1061.25,-104 1071.25,-100.5 1061.25,-97 1061.25,-104"/>
</g>
<!-- 1951978240416+&#45;&gt;1951978240416 -->
<g id="edge4" class="edge">
<title>1951978240416+&#45;&gt;1951978240416</title>
<path fill="none" stroke="black" d="M838.92,-100.5C846.02,-100.5 854.11,-100.5 862.65,-100.5"/>
<polygon fill="black" stroke="black" points="862.56,-104 872.56,-100.5 862.56,-97 862.56,-104"/>
</g>
<!-- 1951978241472 -->
<g id="node13" class="node">
<title>1951978241472</title>
<polygon fill="none" stroke="black" points="1175.2,-82.5 1175.2,-118.5 1337.7,-118.5 1337.7,-82.5 1175.2,-82.5"/>
<text text-anchor="middle" x="1215.45" y="-95.2" font-family="Times New Roman,serif" font-size="14.00">data 0.1024</text>
<polyline fill="none" stroke="black" points="1255.7,-82.75 1255.7,-118.5"/>
<text text-anchor="middle" x="1296.7" y="-95.2" font-family="Times New Roman,serif" font-size="14.00">grad 1.0000</text>
</g>
<!-- 1951978241472ReLU&#45;&gt;1951978241472 -->
<g id="edge5" class="edge">
<title>1951978241472ReLU&#45;&gt;1951978241472</title>
<path fill="none" stroke="black" d="M1139.66,-100.5C1147.01,-100.5 1155.17,-100.5 1163.66,-100.5"/>
<polygon fill="black" stroke="black" points="1163.45,-104 1173.45,-100.5 1163.45,-97 1163.45,-104"/>
</g>
<!-- 1951978169296 -->
<g id="node15" class="node">
<title>1951978169296</title>
<polygon fill="none" stroke="black" points="0,-138.5 0,-174.5 162.5,-174.5 162.5,-138.5 0,-138.5"/>
<text text-anchor="middle" x="40.25" y="-151.2" font-family="Times New Roman,serif" font-size="14.00">data 1.0000</text>
<polyline fill="none" stroke="black" points="80.5,-138.75 80.5,-174.5"/>
<text text-anchor="middle" x="121.5" y="-151.2" font-family="Times New Roman,serif" font-size="14.00">grad 0.2355</text>
</g>
<!-- 1951978169296&#45;&gt;1951977805136* -->
<g id="edge14" class="edge">
<title>1951978169296&#45;&gt;1951977805136*</title>
<path fill="none" stroke="black" d="M162.93,-171.81C171.68,-173.47 180.23,-175.1 188.04,-176.58"/>
<polygon fill="black" stroke="black" points="187.29,-180 197.77,-178.43 188.6,-173.12 187.29,-180"/>
</g>
</g>
</svg>
