<?xml version="1.0" encoding="UTF-8" standalone="no"?>
<!DOCTYPE svg PUBLIC "-//W3C//DTD SVG 1.1//EN"
 "http://www.w3.org/Graphics/SVG/1.1/DTD/svg11.dtd">
<!-- Generated by graphviz version 10.0.1 (20240210.2158)
 -->
<!-- Pages: 1 -->
<svg width="757pt" height="210pt"
 viewBox="0.00 0.00 756.50 210.00" xmlns="http://www.w3.org/2000/svg" xmlns:xlink="http://www.w3.org/1999/xlink">
<g id="graph0" class="graph" transform="scale(1 1) rotate(0) translate(4 206)">
<polygon fill="white" stroke="none" points="-4,4 -4,-206 752.5,-206 752.5,4 -4,4"/>
<!-- 2311069791280 -->
<g id="node1" class="node">
<title>2311069791280</title>
<polygon fill="none" stroke="black" points="2.25,-165.5 2.25,-201.5 164.75,-201.5 164.75,-165.5 2.25,-165.5"/>
<text text-anchor="middle" x="42.5" y="-178.2" font-family="Times New Roman,serif" font-size="14.00">data 0.2138</text>
<polyline fill="none" stroke="black" points="82.75,-165.75 82.75,-201.5"/>
<text text-anchor="middle" x="123.75" y="-178.2" font-family="Times New Roman,serif" font-size="14.00">grad 1.0000</text>
</g>
<!-- 2311069794064* -->
<g id="node6" class="node">
<title>2311069794064*</title>
<ellipse fill="none" stroke="black" cx="230" cy="-128.5" rx="27" ry="18"/>
<text text-anchor="middle" x="230" y="-123.08" font-family="Times New Roman,serif" font-size="14.00">*</text>
</g>
<!-- 2311069791280&#45;&gt;2311069794064* -->
<g id="edge4" class="edge">
<title>2311069791280&#45;&gt;2311069794064*</title>
<path fill="none" stroke="black" d="M143.37,-165.1C151.36,-162.35 159.41,-159.44 167,-156.5 176.92,-152.65 187.54,-148.04 197.13,-143.69"/>
<polygon fill="black" stroke="black" points="198.45,-146.93 206.06,-139.56 195.52,-140.58 198.45,-146.93"/>
</g>
<!-- 2311069793344 -->
<g id="node2" class="node">
<title>2311069793344</title>
<polygon fill="none" stroke="black" points="586,-82.5 586,-118.5 748.5,-118.5 748.5,-82.5 586,-82.5"/>
<text text-anchor="middle" x="626.25" y="-95.2" font-family="Times New Roman,serif" font-size="14.00">data 0.0756</text>
<polyline fill="none" stroke="black" points="666.5,-82.75 666.5,-118.5"/>
<text text-anchor="middle" x="707.5" y="-95.2" font-family="Times New Roman,serif" font-size="14.00">grad 1.0000</text>
</g>
<!-- 2311069793344+ -->
<g id="node3" class="node">
<title>2311069793344+</title>
<ellipse fill="none" stroke="black" cx="523" cy="-100.5" rx="27" ry="18"/>
<text text-anchor="middle" x="523" y="-95.08" font-family="Times New Roman,serif" font-size="14.00">+</text>
</g>
<!-- 2311069793344+&#45;&gt;2311069793344 -->
<g id="edge1" class="edge">
<title>2311069793344+&#45;&gt;2311069793344</title>
<path fill="none" stroke="black" d="M550.42,-100.5C557.52,-100.5 565.61,-100.5 574.15,-100.5"/>
<polygon fill="black" stroke="black" points="574.06,-104 584.06,-100.5 574.06,-97 574.06,-104"/>
</g>
<!-- 2311069790896 -->
<g id="node4" class="node">
<title>2311069790896</title>
<polygon fill="none" stroke="black" points="0,-55.5 0,-91.5 167,-91.5 167,-55.5 0,-55.5"/>
<text text-anchor="middle" x="42.5" y="-68.2" font-family="Times New Roman,serif" font-size="14.00">data &#45;2.0000</text>
<polyline fill="none" stroke="black" points="85,-55.75 85,-91.5"/>
<text text-anchor="middle" x="126" y="-68.2" font-family="Times New Roman,serif" font-size="14.00">grad 0.0691</text>
</g>
<!-- 2311069793584* -->
<g id="node8" class="node">
<title>2311069793584*</title>
<ellipse fill="none" stroke="black" cx="230" cy="-73.5" rx="27" ry="18"/>
<text text-anchor="middle" x="230" y="-68.08" font-family="Times New Roman,serif" font-size="14.00">*</text>
</g>
<!-- 2311069790896&#45;&gt;2311069793584* -->
<g id="edge5" class="edge">
<title>2311069790896&#45;&gt;2311069793584*</title>
<path fill="none" stroke="black" d="M167.3,-73.5C175.56,-73.5 183.63,-73.5 191.07,-73.5"/>
<polygon fill="black" stroke="black" points="191.03,-77 201.03,-73.5 191.03,-70 191.03,-77"/>
</g>
<!-- 2311069794064 -->
<g id="node5" class="node">
<title>2311069794064</title>
<polygon fill="none" stroke="black" points="295.25,-110.5 295.25,-146.5 457.75,-146.5 457.75,-110.5 295.25,-110.5"/>
<text text-anchor="middle" x="335.5" y="-123.2" font-family="Times New Roman,serif" font-size="14.00">data 0.2138</text>
<polyline fill="none" stroke="black" points="375.75,-110.75 375.75,-146.5"/>
<text text-anchor="middle" x="416.75" y="-123.2" font-family="Times New Roman,serif" font-size="14.00">grad 1.0000</text>
</g>
<!-- 2311069794064&#45;&gt;2311069793344+ -->
<g id="edge6" class="edge">
<title>2311069794064&#45;&gt;2311069793344+</title>
<path fill="none" stroke="black" d="M458.2,-112.86C467.69,-111.02 476.98,-109.22 485.41,-107.59"/>
<polygon fill="black" stroke="black" points="486.05,-111.03 495.2,-105.69 484.72,-104.16 486.05,-111.03"/>
</g>
<!-- 2311069794064*&#45;&gt;2311069794064 -->
<g id="edge2" class="edge">
<title>2311069794064*&#45;&gt;2311069794064</title>
<path fill="none" stroke="black" d="M257.17,-128.5C264.94,-128.5 273.94,-128.5 283.43,-128.5"/>
<polygon fill="black" stroke="black" points="283.24,-132 293.24,-128.5 283.24,-125 283.24,-132"/>
</g>
<!-- 2311069793584 -->
<g id="node7" class="node">
<title>2311069793584</title>
<polygon fill="none" stroke="black" points="293,-55.5 293,-91.5 460,-91.5 460,-55.5 293,-55.5"/>
<text text-anchor="middle" x="335.5" y="-68.2" font-family="Times New Roman,serif" font-size="14.00">data &#45;0.1382</text>
<polyline fill="none" stroke="black" points="378,-55.75 378,-91.5"/>
<text text-anchor="middle" x="419" y="-68.2" font-family="Times New Roman,serif" font-size="14.00">grad 1.0000</text>
</g>
<!-- 2311069793584&#45;&gt;2311069793344+ -->
<g id="edge9" class="edge">
<title>2311069793584&#45;&gt;2311069793344+</title>
<path fill="none" stroke="black" d="M460.3,-88.97C469.01,-90.6 477.51,-92.19 485.28,-93.64"/>
<polygon fill="black" stroke="black" points="484.49,-97.05 494.96,-95.45 485.77,-90.17 484.49,-97.05"/>
</g>
<!-- 2311069793584*&#45;&gt;2311069793584 -->
<g id="edge3" class="edge">
<title>2311069793584*&#45;&gt;2311069793584</title>
<path fill="none" stroke="black" d="M257.17,-73.5C264.37,-73.5 272.63,-73.5 281.35,-73.5"/>
<polygon fill="black" stroke="black" points="281.1,-77 291.1,-73.5 281.1,-70 281.1,-77"/>
</g>
<!-- 2311069794112 -->
<g id="node9" class="node">
<title>2311069794112</title>
<polygon fill="none" stroke="black" points="2.25,-110.5 2.25,-146.5 164.75,-146.5 164.75,-110.5 2.25,-110.5"/>
<text text-anchor="middle" x="42.5" y="-123.2" font-family="Times New Roman,serif" font-size="14.00">data 1.0000</text>
<polyline fill="none" stroke="black" points="82.75,-110.75 82.75,-146.5"/>
<text text-anchor="middle" x="123.75" y="-123.2" font-family="Times New Roman,serif" font-size="14.00">grad 0.2138</text>
</g>
<!-- 2311069794112&#45;&gt;2311069794064* -->
<g id="edge7" class="edge">
<title>2311069794112&#45;&gt;2311069794064*</title>
<path fill="none" stroke="black" d="M165.2,-128.5C174.32,-128.5 183.26,-128.5 191.42,-128.5"/>
<polygon fill="black" stroke="black" points="191.25,-132 201.25,-128.5 191.25,-125 191.25,-132"/>
</g>
<!-- 2311069793680 -->
<g id="node10" class="node">
<title>2311069793680</title>
<polygon fill="none" stroke="black" points="0,-0.5 0,-36.5 167,-36.5 167,-0.5 0,-0.5"/>
<text text-anchor="middle" x="40.25" y="-13.2" font-family="Times New Roman,serif" font-size="14.00">data 0.0691</text>
<polyline fill="none" stroke="black" points="80.5,-0.75 80.5,-36.5"/>
<text text-anchor="middle" x="123.75" y="-13.2" font-family="Times New Roman,serif" font-size="14.00">grad &#45;2.0000</text>
</g>
<!-- 2311069793680&#45;&gt;2311069793584* -->
<g id="edge8" class="edge">
<title>2311069793680&#45;&gt;2311069793584*</title>
<path fill="none" stroke="black" d="M143.37,-36.9C151.36,-39.65 159.41,-42.56 167,-45.5 176.92,-49.35 187.54,-53.96 197.13,-58.31"/>
<polygon fill="black" stroke="black" points="195.52,-61.42 206.06,-62.44 198.45,-55.07 195.52,-61.42"/>
</g>
</g>
</svg>
